# xmcd CD database file
#
# Track frame offsets:
#	150
#	19057
#	35302
#	46203
#	61465
#	72296
#	85417
#	101345
#	122939
#	138531
#	156170
#	180541
#	193095
#	219123
#	237176
#
# Disc length: 3247 seconds
#
# Revision: 0
# Processed by: cddbd v1.4PL0 Copyright (c) Steve Scherf et al.
# Submitted via: Feurio! 1.65 - http://www.feurio.com
#
DISCID=cc0cad0f
DTITLE=Albert Lee and Hogan's Heroes - Tear It Up
DYEAR=2002
DGENRE=CountryRock
TTITLE0=I'm Ready
TTITLE1=Rock Around With Ollie Vee
TTITLE2=Take Your Time
TTITLE3=Back In The USA
TTITLE4=Last Date
TTITLE5=On The Rebound
TTITLE6=Jitterbug Boogie
TTITLE7=If You See Me Getting Smaller
TTITLE8=Gone Too Long
TTITLE9=Luxury Liner
TTITLE10=Country Comfort
TTITLE11=Singing The Blues
TTITLE12='Til I Gain Control Again
TTITLE13=Tear It Up
TTITLE14=Down To The Wire
EXTD=(c) Heroic Records 2002
EXTT0=
EXTT1=
EXTT2=
EXTT3=
EXTT4=
EXTT5=
EXTT6=
EXTT7=
EXTT8=
EXTT9=
EXTT10=
EXTT11=
EXTT12=
EXTT13=
EXTT14=
PLAYORDER=
